<?xml version="1.0" encoding="UTF-8"?>
<svg xmlns="http://www.w3.org/2000/svg" viewBox="0 0 380.3 75.49">
    <path fill="#00d69d" d="M50,59.53c1.74.05,2.93.39,4.56-1.19,2.35-2.75,9.93-12.41-.38-16.75-4.58-1.74-15.73-.61-21.33-5.46h0c-4.86-5.63-3.71-16.72-5.46-21.33-4.32-10.31-14.01-2.72-16.75-.38-1.58,1.63-1.24,2.82-1.19,4.56-1.74-.05-2.93-.39-4.56,1.19-2.35,2.75-9.93,12.41.38,16.75,0,0,3.09,1.25,8.37,1.25,5.28,0,7.25,1.08,7.25,1.08,0,0-1.98,1.08-7.25,1.08s-8.37,1.25-8.37,1.25c-10.31,4.32-2.73,14.01-.38,16.75,1.63,1.58,2.82,1.24,4.56,1.19h0c-.05,1.74-.39,2.93,1.19,4.56,2.75,2.35,12.41,9.93,16.75-.38,0,0,1.25-3.09,1.25-8.37,0-5.28,1.08-7.25,1.08-7.25,0,0,1.08,1.98,1.08,7.25,0,5.28,1.25,8.37,1.25,8.37,4.32,10.31,14.01,2.73,16.75.38,1.58-1.63,1.24-2.82,1.19-4.56Z"/>
    <path fill="#ffffff" d="M30.08,23.17c0,.24,0,.48.02.72,7.42.75,14.25,7.58,15,15,2.78-.01,5.84.32,7.39.72,7.28-3.63,7.9-.93,5.53-9.08-.19-.72-.89-1.19-1.63-1.1l-6.72.81c-.44-.87-.92-1.72-1.47-2.54,4.64-7.01,6.59-4.95.42-10.86-.53-.53-1.37-.59-1.97-.14l-5.41,4.06c-.82-.54-1.68-1.03-2.55-1.46l.79-6.72c.09-.74-.38-1.44-1.11-1.63-8.15-2.34-5.47-1.73-9.02,5.45.36,1.53.73,3.84.73,6.78Z"/>
    <path fill="#ffffff" d="M30.35,26.08c1.85,8.73,3.81,10.7,12.54,12.55-.85-6.11-6.43-11.7-12.54-12.55Z"/>
    <path fill="#ffffff" transform="translate(72.000,56) scale(0.055874,-0.055874)" d="M471 697V623H168V388H414V314H168V0H77V697Z"/>
    <path fill="#ffffff" transform="translate(100.160,56) scale(0.055874,-0.055874)" d="M345 558V464H321Q168 464 168 298V0H77V548H168V459Q192 506 236.5 532.0Q281 558 345 558Z"/>
    <path fill="#ffffff" transform="translate(121.001,56) scale(0.055874,-0.055874)" d="M303 557Q375 557 428.0 526.0Q481 495 507 448V548H599V0H507V102Q480 54 426.5 22.5Q373 -9 302 -9Q229 -9 170.0 27.0Q111 63 77.0 128.0Q43 193 43 276Q43 360 77.0 423.5Q111 487 170.5 522.0Q230 557 303 557ZM321 478Q270 478 228.0 454.0Q186 430 161.0 384.0Q136 338 136 276Q136 213 161.0 166.5Q186 120 228.0 95.5Q270 71 321 71Q372 71 414.5 95.5Q457 120 482.0 166.5Q507 213 507 275Q507 337 482.0 383.0Q457 429 414.5 453.5Q372 478 321 478Z"/>
    <path fill="#ffffff" transform="translate(158.772,56) scale(0.055874,-0.055874)" d="M563 548V0H472V81Q446 39 399.5 15.5Q353 -8 297 -8Q233 -8 182.0 18.5Q131 45 101.5 98.0Q72 151 72 227V548H162V239Q162 158 203.0 114.5Q244 71 315 71Q388 71 430.0 116.0Q472 161 472 247V548Z"/>
    <path fill="#ffffff" transform="translate(194.532,56) scale(0.055874,-0.055874)" d="M304 557Q368 557 423.0 527.5Q478 498 507 450V740H599V0H507V103Q480 54 427.0 22.5Q374 -9 303 -9Q230 -9 170.5 27.0Q111 63 77.0 128.0Q43 193 43 276Q43 360 77.0 423.5Q111 487 170.5 522.0Q230 557 304 557ZM321 478Q270 478 228.0 454.0Q186 430 161.0 384.0Q136 338 136 276Q136 213 161.0 166.5Q186 120 228.0 95.5Q270 71 321 71Q372 71 414.5 95.5Q457 120 482.0 166.5Q507 213 507 275Q507 337 482.0 383.0Q457 429 414.5 453.5Q372 478 321 478Z"/>
    <path fill="#00d69d" transform="translate(242.302,56) scale(0.055319,-0.055319)" d="M42 210H224Q228 171 251.0 150.5Q274 130 311 130Q349 130 371.0 147.5Q393 165 393 196Q393 222 375.5 239.0Q358 256 332.5 267.0Q307 278 260 292Q192 313 149.0 334.0Q106 355 75.0 396.0Q44 437 44 503Q44 601 115.0 656.5Q186 712 300 712Q416 712 487.0 656.5Q558 601 563 502H378Q376 536 353.0 555.5Q330 575 294 575Q263 575 244.0 558.5Q225 542 225 511Q225 477 257.0 458.0Q289 439 357 417Q425 394 467.5 373.0Q510 352 541.0 312.0Q572 272 572 209Q572 149 541.5 100.0Q511 51 453.0 22.0Q395 -7 316 -7Q239 -7 178.0 18.0Q117 43 80.5 92.0Q44 141 42 210Z"/>
    <path fill="#00d69d" transform="translate(276.324,56) scale(0.055319,-0.055319)" d="M617 326V0H447V303Q447 359 418.0 390.0Q389 421 340 421Q291 421 262.0 390.0Q233 359 233 303V0H62V740H233V483Q259 520 304.0 542.0Q349 564 405 564Q501 564 559.0 500.5Q617 437 617 326Z"/>
    <path fill="#00d69d" transform="translate(313.609,56) scale(0.055319,-0.055319)" d="M46 708Q46 748 74.5 774.5Q103 801 148 801Q192 801 220.5 774.5Q249 748 249 708Q249 669 220.5 642.5Q192 616 148 616Q103 616 74.5 642.5Q46 669 46 708ZM233 558V0H62V558Z"/>
    <path fill="#00d69d" transform="translate(329.928,56) scale(0.055319,-0.055319)" d="M342 416H250V0H79V416H17V558H79V574Q79 677 138.0 730.5Q197 784 311 784Q330 784 339 783V638Q290 641 270.0 624.0Q250 607 250 563V558H342Z"/>
    <path fill="#00d69d" transform="translate(349.843,56) scale(0.055319,-0.055319)" d="M373 145V0H286Q193 0 141.0 45.5Q89 91 89 194V416H21V558H89V694H260V558H372V416H260V192Q260 167 272.0 156.0Q284 145 312 145Z"/>
</svg>